<svg id="레이어_1" data-name="레이어 1" xmlns="http://www.w3.org/2000/svg" xmlns:xlink="http://www.w3.org/1999/xlink" viewBox="0 0 223.53 223.55"><defs><style>.cls-1{fill:none;}.cls-2{clip-path:url(#clip-path);}.cls-3{fill:url(#linear-gradient);}</style><clipPath id="clip-path"><path class="cls-1" d="M3.6,0A3.61,3.61,0,0,0,0,3.53L0,113.21C1.51,173.56,50.24,223.1,110.92,223.55h1.47A111.76,111.76,0,0,0,114.22.05h0a4,4,0,0,0-4.13,4v89.5a3.61,3.61,0,0,0,3.6,3.61h32.47a49,49,0,1,1-49,49V3.62A3.6,3.6,0,0,0,93.57,0Z"/></clipPath><linearGradient id="linear-gradient" x1="-52.95" y1="249.19" x2="-51.95" y2="249.19" gradientTransform="matrix(0, -210.59, -210.59, 0, 52588.68, -10922.8)" gradientUnits="userSpaceOnUse"><stop offset="0" stop-color="#7065dd"/><stop offset="0.3" stop-color="#5084ff"/><stop offset="0.64" stop-color="#10b0f5"/><stop offset="1" stop-color="#24cbd7"/></linearGradient></defs><title>대지 1</title><g class="cls-2"><rect class="cls-3" x="-23.72" y="-23.72" width="270.97" height="270.99" transform="translate(-23.72 30.36) rotate(-14)"/></g></svg>